<svg xmlns="http://www.w3.org/2000/svg" fill="none" viewBox="0 0 42 42"><path fill="url(#a)" d="M11.9 9.1a3.66 3.66 0 0 0-3.7 3.63.67.67 0 0 0 .69.68c.38 0 .7-.3.7-.68a2.28 2.28 0 0 1 2.29-2.26c.38 0 .7-.3.7-.68a.69.69 0 0 0-.7-.68l.01-.01Z"/><path fill="url(#b)" d="M32 18.3H19.6v-5.57a7.66 7.66 0 0 0-7.7-7.58 7.67 7.67 0 0 0-7.73 7.58v17.05c0 4.19 3.47 7.6 7.72 7.6 2.8 0 5.36-1.48 6.72-3.87H32a7.67 7.67 0 0 0 7.72-7.6A7.66 7.66 0 0 0 32 18.32v-.01Zm6.33 7.6a6.29 6.29 0 0 1-6.34 6.23H24.1V19.69H32a6.3 6.3 0 0 1 6.34 6.22Zm-15.6-6.21v12.44h-3.52c.25-.76.39-1.55.39-2.35v-10.1h3.13Zm-17.18.77v-7.73a6.3 6.3 0 0 1 6.34-6.22 6.3 6.3 0 0 1 6.34 6.22v7.73H5.55Zm12.67 1.38v7.94A6.3 6.3 0 0 1 11.88 36a6.3 6.3 0 0 1-6.34-6.22v-7.94h12.68Z"/><defs><linearGradient id="a" x1="10.35" x2="12.35" y1="9.1" y2="10.34" gradientUnits="userSpaceOnUse"><stop stop-color="#192644"/><stop offset="1" stop-color="#1A4081"/></linearGradient><linearGradient id="b" x1="21.59" x2="37.06" y1="5.15" y2="15.65" gradientUnits="userSpaceOnUse"><stop stop-color="#192644"/><stop offset="1" stop-color="#1A4081"/></linearGradient></defs></svg>