<svg xmlns="http://www.w3.org/2000/svg" fill="none" viewBox="0 0 42 42"><path fill="url(#a)" d="M31.47 28.31V14.42a4.94 4.94 0 0 0 2.22-4.67A5.29 5.29 0 0 0 28.94 5a5.56 5.56 0 0 0-4.27 1.35 5.19 5.19 0 0 0-1.73 3.82 4.97 4.97 0 0 0 2.23 4.25V28.3a4.73 4.73 0 0 0-2.23 4.12 5.04 5.04 0 0 0 2.59 4.51c.16.08.34.1.51.04a.65.65 0 0 0 .4-.32c.05-.1.07-.19.07-.3V32.4c0-.5.55-1.09 1.04-1.09h1.57c.49 0 1.04.58 1.04 1.1v3.97c0 .18.08.34.21.46.12.12.29.18.46.18.1 0 .22-.02.32-.08a5.06 5.06 0 0 0 2.57-4.51 4.79 4.79 0 0 0-2.23-4.12l-.02.01Zm-2.35 1.7h-1.57c-1.2 0-2.36 1.19-2.36 2.4v2.58c-.6-.7-.94-1.61-.92-2.56a3.51 3.51 0 0 1 1.9-3.17.67.67 0 0 0 .34-.58V14.04a.67.67 0 0 0-.34-.57 3.66 3.66 0 0 1-1.9-3.31c0-1.1.47-2.13 1.28-2.85a4.14 4.14 0 0 1 3.26-1.02 4 4 0 0 1 3.58 3.55c.16 1.49-.59 2.9-1.89 3.61a.67.67 0 0 0-.34.58v14.63c0 .24.13.46.34.58a3.48 3.48 0 0 1 1.9 3.18c0 .93-.32 1.85-.93 2.56v-2.59c0-1.2-1.16-2.4-2.36-2.4l.01.01Z"/><path fill="url(#b)" d="M28.34 14.12c-.37 0-.66.3-.66.66v13.4c0 .37.3.66.67.66.37 0 .66-.3.66-.66v-13.4c0-.37-.3-.66-.66-.66h-.01Z"/><path fill="url(#c)" d="M31.24 11.25V9.4a.67.67 0 0 0-.2-.48l-1.31-1.3a.68.68 0 0 0-.47-.2H27.4a.62.62 0 0 0-.45.2l-1.32 1.3a.7.7 0 0 0-.2.46v1.85c0 .18.07.35.2.48l1.32 1.31c.11.12.28.2.47.2h1.85c.17 0 .34-.07.46-.2l1.31-1.31a.7.7 0 0 0 .2-.46Zm-3.56.64-.92-.92v-1.3l.92-.92H29l.92.92v1.3l-.92.92h-1.3Z"/><path fill="url(#d)" d="M16.73 5.18c-.43-.28-.73-.2-.86-.11-.25.14-.4.47-.4.89l.06 2.73c0 .6 0 1.18-.36 1.56-.43.49-1.22.47-1.91.4-.42-.03-.8-.07-1.05-.3-.37-.3-.4-.89-.38-1.41L11.85 6c0-.31-.08-.72-.31-.93a.5.5 0 0 0-.45-.15c-.43.04-.9.52-1.34.95l-.04.04c-.79.83-1.3 1.9-1.43 3.03a5.2 5.2 0 0 0 1.88 4.49c.13.1.25.21.31.33.04.1.04.2.04.33v12.88c0 .15-.01.3-.05.4-.08.13-.18.25-.31.35a5.34 5.34 0 0 0 3.36 9.35h.17a5.34 5.34 0 0 0 3.72-9.14c-.22-.18-.39-.4-.5-.61-.07-.2-.1-.4-.09-.6V14.1c0-.1 0-.23.04-.3a.83.83 0 0 1 .32-.32 5.23 5.23 0 0 0 1.9-3.9v-.34a5.24 5.24 0 0 0-2.32-4.03l-.02-.03Zm-.9 7.54a.67.67 0 0 0-.34.58v14.63c0 .24.13.46.34.58a3.66 3.66 0 0 1 1.9 3.3c0 1.1-.47 2.13-1.28 2.85a4.18 4.18 0 0 1-3.25 1.03 4 4 0 0 1-3.58-3.56c-.16-1.48.6-2.9 1.9-3.61a.67.67 0 0 0 .33-.58V13.31a.67.67 0 0 0-.34-.58 3.48 3.48 0 0 1-1.89-3.18c-.01-.93.32-1.85.92-2.55v2.58c0 1.2 1.17 2.4 2.36 2.4h1.58c1.2 0 2.36-1.2 2.36-2.4V7c.6.7.93 1.61.92 2.55a3.51 3.51 0 0 1-1.9 3.18l-.03-.01Z"/><path fill="url(#e)" d="M13.66 27.85c.37 0 .66-.3.66-.65V13.8a.66.66 0 0 0-1.31 0v13.4c0 .36.3.65.65.65Z"/><path fill="url(#f)" d="M14.6 28.76h-1.86a.62.62 0 0 0-.46.2l-1.3 1.3a.68.68 0 0 0-.2.48v1.85c0 .17.06.34.2.46l1.3 1.31c.12.12.3.2.48.2h1.85c.17 0 .34-.07.46-.2l1.31-1.31c.12-.12.2-.29.2-.46v-1.85a.67.67 0 0 0-.2-.47l-1.31-1.32a.68.68 0 0 0-.47-.2ZM13 33.23l-.91-.92v-1.3l.92-.91h1.3l.93.91v1.3l-.92.92H13Z"/><defs><linearGradient id="a" x1="28.22" x2="34.79" y1="4.95" y2="6.32" gradientUnits="userSpaceOnUse"><stop stop-color="#192644"/><stop offset="1" stop-color="#1A4081"/></linearGradient><linearGradient id="b" x1="28.33" x2="29.17" y1="14.12" y2="14.17" gradientUnits="userSpaceOnUse"><stop stop-color="#192644"/><stop offset="1" stop-color="#1A4081"/></linearGradient><linearGradient id="c" x1="28.28" x2="30.95" y1="7.42" y2="9.06" gradientUnits="userSpaceOnUse"><stop stop-color="#192644"/><stop offset="1" stop-color="#1A4081"/></linearGradient><linearGradient id="d" x1="13.56" x2="20.15" y1="4.93" y2="6.29" gradientUnits="userSpaceOnUse"><stop stop-color="#192644"/><stop offset="1" stop-color="#1A4081"/></linearGradient><linearGradient id="e" x1="13.65" x2="14.48" y1="13.14" y2="13.18" gradientUnits="userSpaceOnUse"><stop stop-color="#192644"/><stop offset="1" stop-color="#1A4081"/></linearGradient><linearGradient id="f" x1="13.62" x2="16.29" y1="28.76" y2="30.4" gradientUnits="userSpaceOnUse"><stop stop-color="#192644"/><stop offset="1" stop-color="#1A4081"/></linearGradient></defs></svg>