<svg xmlns="http://www.w3.org/2000/svg" fill="none" viewBox="0 0 42 42"><path fill="url(#a)" d="M36.1 12.34H29.1V6.68c0-.97-.79-1.74-1.74-1.74h-12.7c-.98 0-1.76.78-1.76 1.74v5.66H5.93a.7.7 0 0 0-.7.7v5.3c0 .38.32.7.7.7h.37v2.64h1.38v-2.65H9.2v1.43c0 .38.32.7.7.7H12a.7.7 0 0 0 .7-.7v-1.43H24.9v-1.38H12.7v-1.43a.7.7 0 0 0-.7-.7H9.9a.7.7 0 0 0-.7.7v1.43H6.62v-3.9H35.4v3.9H32.8v-1.43a.7.7 0 0 0-.7-.7h-2.1a.7.7 0 0 0-.7.7v1.43h-1.59v1.38h1.59v1.43c0 .38.31.7.7.7h2.1a.7.7 0 0 0 .7-.7v-1.43h1.52v16.62H23.29v-2.77h-1.37v2.77h-1.8V28.6a.69.69 0 0 0-.44-.64 3.49 3.49 0 0 1-1.86-1.76 3.53 3.53 0 0 1 1.46-4.6v3.08c0 .26.14.51.38.62l1.06.52c.2.1.43.1.62 0l1.06-.52a.68.68 0 0 0 .38-.62v-3.07a3.51 3.51 0 0 1 1.5 4.45 3.52 3.52 0 0 1-1.92 1.9.69.69 0 0 0-.43.64v2.52h1.38v-2.07a4.93 4.93 0 0 0-1.05-9.14.69.69 0 0 0-.87.67v3.68l-.37.18-.36-.18v-3.68s0-.1-.03-.17a.7.7 0 0 0-.84-.5 4.93 4.93 0 0 0-1.05 9.15v6.6H7.66V24.53H6.3v11.82c0 .38.31.7.7.7h28.05a.7.7 0 0 0 .7-.7V19.04h.37a.7.7 0 0 0 .7-.7v-5.3a.7.7 0 0 0-.7-.69l-.02-.01ZM25.6 8.43v3.9h-9.2v-3.9h9.2Zm.69-1.4h-10.6a.7.7 0 0 0-.69.7v4.6h-.73V6.69c0-.2.17-.37.36-.37h12.7c.2 0 .38.16.38.37v5.66h-.74v-4.6a.7.7 0 0 0-.7-.7h.02ZM10.57 19.76v-2.84h.73v2.84h-.73Zm20.86-2.86v2.85h-.73v-2.85h.73Z"/><path fill="url(#b)" d="M7.65 22.4H6.27v1.37h1.38v-1.38Z"/><path fill="url(#c)" d="M26.98 17.63h-1.37V19h1.38v-1.38Z"/><defs><linearGradient id="a" x1="20.71" x2="35.39" y1="4.94" y2="13.82" gradientUnits="userSpaceOnUse"><stop stop-color="#192644"/><stop offset="1" stop-color="#1A4081"/></linearGradient><linearGradient id="b" x1="6.95" x2="7.58" y1="22.39" y2="22.78" gradientUnits="userSpaceOnUse"><stop stop-color="#192644"/><stop offset="1" stop-color="#1A4081"/></linearGradient><linearGradient id="c" x1="26.28" x2="26.92" y1="17.63" y2="18.02" gradientUnits="userSpaceOnUse"><stop stop-color="#192644"/><stop offset="1" stop-color="#1A4081"/></linearGradient></defs></svg>