<svg xmlns="http://www.w3.org/2000/svg" fill="none" viewBox="0 0 42 42"><path fill="url(#a)" d="M10.3 11.93c-.38 0-.7-.21-.7-.38 0-.33-.27-.6-.6-.6-.32 0-.6.27-.6.6 0 .7.53 1.3 1.3 1.5v.26c0 .33.28.6.6.6.33 0 .6-.27.6-.6v-.25c.78-.21 1.3-.81 1.3-1.51 0-1.26-1.16-1.47-1.8-1.58-.8-.14-.8-.22-.8-.38 0-.15.3-.38.7-.38.4 0 .7.21.7.38 0 .33.27.6.6.6.33 0 .6-.27.6-.6 0-.7-.52-1.3-1.3-1.5v-.2c0-.33-.27-.6-.6-.6-.32 0-.6.27-.6.6v.2c-.77.2-1.3.8-1.3 1.5 0 1.26 1.13 1.46 1.8 1.58.8.14.8.22.8.38s-.32.38-.7.38Z"/><path fill="url(#b)" d="M10.3 15.3a4.73 4.73 0 1 0 0-9.47 4.73 4.73 0 0 0 0 9.46Zm-3.5-4.73a3.51 3.51 0 0 1 7 0 3.51 3.51 0 0 1-7 0Z"/><path fill="url(#c)" d="M27.86 34.82c-.13-.3-.5-.45-.8-.3a14.8 14.8 0 0 1-11.38.3 14.96 14.96 0 0 1-9.13-17.35l.1.31c.04.16.14.3.28.36.14.08.3.09.46.05a.56.56 0 0 0 .35-.29c.08-.14.1-.3.06-.46l-.67-2.22a.61.61 0 0 0-.9-.34l-2 1.2a.59.59 0 0 0-.27.38.7.7 0 0 0 .07.46c.17.29.55.38.84.2l.58-.35a16.08 16.08 0 0 0 22.09 18.86.6.6 0 0 0 .3-.8h.02Z"/><path fill="url(#d)" d="m35.74 27.88-3.89-2.25a.62.62 0 0 0-.6 0l-3.87 2.25a.6.6 0 0 0-.3.52v4.48c0 .22.12.42.3.52l3.88 2.25a.61.61 0 0 0 .6 0l3.9-2.25c.18-.1.3-.3.3-.52V28.4a.6.6 0 0 0-.3-.52h-.02ZM30.94 31v3.07l-2.66-1.53v-3.07L30.95 31Zm1.22 0 .25-.14v1.2c0 .21.11.42.3.53.18.1.42.1.6 0l.96-.55c.18-.1.3-.32.3-.53v-1.9l.25-.14v3.07l-2.66 1.53V31Zm-.86-3.99.25-.14 2.67 1.53-.25.15L31.3 27Zm.5 2.8-.25.14-2.66-1.53.25-.15 2.66 1.54Z"/><path fill="url(#e)" d="M37.94 24.95a.6.6 0 0 0-.84-.2l-.57.36a16.05 16.05 0 0 0-9.78-19.2 16.02 16.02 0 0 0-12.31.34.58.58 0 0 0-.32.34.69.69 0 0 0 0 .46c.07.14.19.26.34.31.16.07.32.06.46 0a14.8 14.8 0 0 1 11.38-.3 14.96 14.96 0 0 1 9.14 17.35l-.1-.31a.56.56 0 0 0-.28-.36.57.57 0 0 0-.46-.04.56.56 0 0 0-.36.3c-.08.14-.09.3-.05.45l.67 2.22c.05.18.18.33.37.4a.6.6 0 0 0 .52-.06l1.98-1.2a.59.59 0 0 0 .28-.37.69.69 0 0 0-.07-.46v-.03Z"/><path fill="url(#f)" d="M26.2 13.3a.6.6 0 0 0-.71.02l-1.08.82a5.8 5.8 0 0 0-1.02-.42l-.19-1.34a.6.6 0 0 0-.48-.52 9.46 9.46 0 0 0-3.44 0 .58.58 0 0 0-.48.52l-.19 1.34c-.35.11-.7.26-1.02.42l-1.07-.82a.6.6 0 0 0-.7-.01 9.1 9.1 0 0 0-2.43 2.43c-.15.22-.15.5.01.7l.81 1.07c-.17.33-.31.67-.42 1.02l-1.33.19a.6.6 0 0 0-.52.48 9.46 9.46 0 0 0 0 3.44.6.6 0 0 0 .52.49l1.33.18c.12.35.27.7.42 1.02l-.8 1.07a.6.6 0 0 0-.02.7 9.29 9.29 0 0 0 2.43 2.43c.22.15.5.15.7 0l1.08-.82c.33.17.67.31 1.02.42l.19 1.34a.6.6 0 0 0 .48.5 9.41 9.41 0 0 0 3.44 0 .6.6 0 0 0 .49-.5l.18-1.34c.36-.12.7-.27 1.03-.42l1.07.81c.21.16.5.17.71.01a9.29 9.29 0 0 0 2.43-2.42.61.61 0 0 0-.01-.71l-.82-1.07c.17-.32.32-.68.44-1.02l1.33-.18a.6.6 0 0 0 .52-.49c.2-1.14.2-2.3 0-3.44a.58.58 0 0 0-.52-.48l-1.33-.19c-.12-.35-.27-.7-.44-1.02l.82-1.06a.6.6 0 0 0 0-.71 9.29 9.29 0 0 0-2.42-2.43h-.01Zm.96 9.3a6.78 6.78 0 0 1-.62 1.5c-.12.2-.1.47.04.67l.77 1.02a8.08 8.08 0 0 1-1.5 1.5l-1.02-.78a.6.6 0 0 0-.67-.04c-.47.27-.97.48-1.5.62a.62.62 0 0 0-.44.51l-.17 1.27c-.7.1-1.42.1-2.13 0l-.17-1.27a.62.62 0 0 0-.44-.51 6.78 6.78 0 0 1-1.5-.62.6.6 0 0 0-.67.06l-1.02.77a8.08 8.08 0 0 1-1.5-1.5l.78-1.02a.6.6 0 0 0 .04-.67 6.78 6.78 0 0 1-.62-1.5.62.62 0 0 0-.51-.44L13.03 22c-.09-.71-.09-1.42 0-2.13l1.28-.17a.59.59 0 0 0 .5-.45c.14-.5.35-1.02.61-1.5a.62.62 0 0 0-.04-.66l-.77-1.02a7.7 7.7 0 0 1 1.5-1.5l1.02.77c.2.16.46.17.67.04.47-.26.97-.47 1.5-.61.23-.07.4-.27.44-.52l.17-1.27c.7-.1 1.42-.1 2.13 0l.17 1.27a.6.6 0 0 0 .44.52c.53.14 1.03.35 1.5.61.21.12.47.1.67-.04l1.02-.77c.57.43 1.07.93 1.5 1.5l-.77 1.02a.6.6 0 0 0-.04.67c.26.46.47.97.61 1.5.07.23.27.4.51.44l1.28.17c.09.71.09 1.42 0 2.13l-1.28.17a.62.62 0 0 0-.5.44Z"/><path fill="url(#g)" d="M21 16.08a4.82 4.82 0 0 0-3.43 8.27 4.82 4.82 0 0 0 6.86 0A4.86 4.86 0 0 0 21 16.06v.02Zm2.57 7.41a3.62 3.62 0 0 1-5.14 0 3.62 3.62 0 0 1 0-5.14 3.62 3.62 0 0 1 5.14 0 3.64 3.64 0 0 1 0 5.14Z"/><defs><linearGradient id="a" x1="10.27" x2="12.42" y1="7.28" y2="8.04" gradientUnits="userSpaceOnUse"><stop stop-color="#192644"/><stop offset="1" stop-color="#1A4081"/></linearGradient><linearGradient id="b" x1="10.21" x2="14.56" y1="5.84" y2="8.52" gradientUnits="userSpaceOnUse"><stop stop-color="#192644"/><stop offset="1" stop-color="#1A4081"/></linearGradient><linearGradient id="c" x1="15.68" x2="26.26" y1="14.79" y2="21.8" gradientUnits="userSpaceOnUse"><stop stop-color="#192644"/><stop offset="1" stop-color="#1A4081"/></linearGradient><linearGradient id="d" x1="31.48" x2="35.88" y1="25.55" y2="27.95" gradientUnits="userSpaceOnUse"><stop stop-color="#192644"/><stop offset="1" stop-color="#1A4081"/></linearGradient><linearGradient id="e" x1="25.82" x2="36.39" y1="4.85" y2="11.86" gradientUnits="userSpaceOnUse"><stop stop-color="#192644"/><stop offset="1" stop-color="#1A4081"/></linearGradient><linearGradient id="f" x1="20.84" x2="29.34" y1="11.71" y2="16.95" gradientUnits="userSpaceOnUse"><stop stop-color="#192644"/><stop offset="1" stop-color="#1A4081"/></linearGradient><linearGradient id="g" x1="20.9" x2="25.37" y1="16.06" y2="18.81" gradientUnits="userSpaceOnUse"><stop stop-color="#192644"/><stop offset="1" stop-color="#1A4081"/></linearGradient></defs></svg>