<svg xmlns="http://www.w3.org/2000/svg" fill="none" viewBox="0 0 42 42"><path fill="url(#a)" d="M25.73 30.62h-9.44c-.37 0-.67.28-.67.6 0 .36.29.63.67.63h9.44c.38 0 .66-.27.66-.63 0-.35-.3-.6-.66-.6Z"/><path fill="url(#b)" d="M13.2 33.94h15.6c.36 0 .65-.29.65-.63v-4.17a.64.64 0 0 0-.64-.63H13.19c-.37 0-.67.29-.67.63v4.17c0 .34.3.63.67.63Zm.66-1.23v-2.94h14.28v2.94H13.86Z"/><path fill="url(#c)" d="M35.3 22.2h-3.83l.49-8.29c.1-1.5-1.02-2.9-2.61-3.28a4.56 4.56 0 0 1 3.04-2.7c.34-.08.57-.42.48-.75a.7.7 0 0 0-.82-.46c-1.15.29-2.12.9-2.91 1.8V5.56c0-.34-.3-.6-.65-.6-.35 0-.66.28-.66.6v2.96a5.5 5.5 0 0 0-2.9-1.8c-.39-.08-.73.12-.82.46a.62.62 0 0 0 .07.46c.09.14.23.23.39.27a4.57 4.57 0 0 1 3.03 2.72c-.63.17-1.2.49-1.7.93a3.1 3.1 0 0 0-.92 2.35l.48 8.28h-1.43l.62-9.84a3.48 3.48 0 0 0-1.06-2.65 4.35 4.35 0 0 0-6.07 0 3.42 3.42 0 0 0-1.06 2.65l.59 9.84h-1.09V17.4c0-.89-.28-1.87-.55-2.91l-.05-.2a16.83 16.83 0 0 1-.8-3.9c.35 0 .64-.3.64-.64V8.03a.64.64 0 0 0-.64-.63h-4.3a.64.64 0 0 0-.64.63v1.72c0 .34.29.63.64.63a17.53 17.53 0 0 1-.8 3.91l-.05.2c-.29 1.04-.55 2-.55 2.9v4.8H6.72c-.38 0-.67.27-.67.62v3.24c0 .36.29.63.67.63h.73l1.86 9.77c.02.31.3.55.64.55h22.11c.35 0 .62-.22.67-.54l1.85-9.78h.74c.38 0 .67-.27.67-.63v-3.24c0-.35-.29-.63-.67-.63l-.01.01Zm-2.08 4.5-1.73 9.08H10.5L8.77 26.7h24.45ZM10.92 9.15v-.49h2.95v.49h-2.95Zm2.3 1.24c.08 1.49.46 2.84.8 4.02l.13.45c.27.97.51 1.8.51 2.54v4.8h-4.49v-4.8c0-.8.28-1.76.55-2.78l.07-.22c.34-1.2.72-2.54.8-4.02h1.64l-.01.01Zm4.98.49c.08-.12.19-.22.3-.31a2.87 2.87 0 0 1 2.05-.84c.8 0 1.55.3 2.08.84.48.47.72 1.07.68 1.7l-.05 1.13-5.07-2.52h.01Zm4.57 10.4-.05.91H18.4L18.22 19l4.55 2.28Zm.2-3.25-.1 1.9-4.73-2.38-.13-2.01 4.96 2.5Zm-5.17-5.76v-.18l5.4 2.68-.14 1.89-5.14-2.58-.12-1.8Zm9.97 4.71c0 .34.3.63.65.63h2l-.27 4.58H26.8l-.1-1.9h1.98c.35 0 .67-.29.67-.63s-.3-.63-.67-.63h-2.06l-.24-4.1h1.92c.38 0 .67-.27.67-.62 0-.36-.3-.63-.67-.63h-1.98c.02-.46.22-.9.57-1.25.41-.42.99-.66 1.6-.66h.15c1.15.08 2.09 1.03 2.02 2.08l-.14 2.5h-2.1a.64.64 0 0 0-.63.63h-.02Zm6.87 6.47v1.99H7.34v-1.99h1.91s.15.04.25.04h5.82c.1 0 .18-.02.25-.04h19.08-.01Z"/><path fill="url(#d)" d="M12.42 20.82c1.03 0 1.87-.8 1.87-1.79 0-.98-.86-1.76-1.87-1.76-1.01 0-1.9.79-1.9 1.76s.85 1.79 1.9 1.79Zm-.57-1.79c0-.27.25-.51.57-.51.29 0 .53.24.53.51 0 .29-.23.53-.53.53-.32 0-.57-.24-.57-.53Z"/><defs><linearGradient id="a" x1="20.9" x2="21.13" y1="30.62" y2="31.85" gradientUnits="userSpaceOnUse"><stop stop-color="#192644"/><stop offset="1" stop-color="#1A4081"/></linearGradient><linearGradient id="b" x1="20.82" x2="23.12" y1="28.51" y2="32.92" gradientUnits="userSpaceOnUse"><stop stop-color="#192644"/><stop offset="1" stop-color="#1A4081"/></linearGradient><linearGradient id="c" x1="20.72" x2="35.02" y1="4.96" y2="13.19" gradientUnits="userSpaceOnUse"><stop stop-color="#192644"/><stop offset="1" stop-color="#1A4081"/></linearGradient><linearGradient id="d" x1="12.37" x2="14.04" y1="17.27" y2="18.38" gradientUnits="userSpaceOnUse"><stop stop-color="#192644"/><stop offset="1" stop-color="#1A4081"/></linearGradient></defs></svg>