<svg xmlns="http://www.w3.org/2000/svg" fill="none" viewBox="0 0 42 42"><path fill="url(#a)" d="M15.55 21.67c-.78 0-1.5-.53-1.7-1.31L13.49 19a1.78 1.78 0 0 1 1.25-2.16c.93-.25 1.92.31 2.17 1.25l.35 1.35a1.76 1.76 0 0 1-1.7 2.23Zm-.36-3.61-.14.01a.48.48 0 0 0-.34.6l.36 1.35c.06.26.34.42.6.34a.53.53 0 0 0 .3-.23.52.52 0 0 0 .06-.36l-.36-1.36a.49.49 0 0 0-.47-.36l-.01.01Z"/><path fill="url(#b)" d="M26.45 21.67c-.16 0-.3-.03-.46-.07a1.75 1.75 0 0 1-1.08-.82c-.23-.41-.3-.88-.18-1.34l.35-1.35a1.77 1.77 0 0 1 3.24-.42c.24.4.3.89.17 1.33l-.35 1.36a1.75 1.75 0 0 1-1.7 1.3Zm.35-3.61a.49.49 0 0 0-.47.37l-.36 1.35a.45.45 0 0 0 .06.37c.06.11.17.2.3.22a.5.5 0 0 0 .37-.05c.11-.07.2-.17.22-.3l.35-1.36a.45.45 0 0 0-.05-.36.5.5 0 0 0-.3-.24l-.13-.01.01.01Z"/><path fill="url(#c)" d="M18.8 18.83c-.98 0-1.78-.8-1.78-1.77v-1.39a1.77 1.77 0 0 1 3.55 0v1.4c0 .96-.8 1.76-1.77 1.76Zm0-3.66a.48.48 0 0 0-.5.49v1.39a.48.48 0 1 0 .98 0v-1.4a.48.48 0 0 0-.48-.48Z"/><path fill="url(#d)" d="M23.2 18.83c-.97 0-1.77-.8-1.77-1.77v-1.39c0-.97.8-1.77 1.77-1.77.98 0 1.78.8 1.78 1.77v1.4c0 .96-.8 1.76-1.78 1.76Zm0-3.66a.48.48 0 0 0-.48.49v1.39a.48.48 0 1 0 .97 0v-1.4a.48.48 0 0 0-.49-.48Z"/><path fill="url(#e)" d="M25.97 37.08h-9.96a2.2 2.2 0 0 1-2.19-2.2v-5.8c0-.5-.4-.91-.92-.91H7.1a2.2 2.2 0 0 1-2.2-2.2v-9.96c0-1.2 1-2.19 2.2-2.19h5.8c.5 0 .92-.4.92-.92V7.1c0-1.2.98-2.2 2.2-2.2h9.95c1.21 0 2.2 1 2.2 2.2v5.8c0 .5.4.92.91.92h1.54a.64.64 0 0 1 0 1.29h-1.54a2.2 2.2 0 0 1-2.19-2.2v-5.8c0-.5-.4-.92-.92-.92h-9.96c-.5 0-.92.41-.92.92v5.8c0 1.21-.98 2.2-2.19 2.2H7.1c-.5 0-.92.4-.92.92v9.96c0 .5.4.92.92.92h5.8c1.2 0 2.2.98 2.2 2.19v5.8c0 .5.4.92.91.92h9.96c.5 0 .92-.4.92-.92v-5.8c0-1.2.99-2.2 2.2-2.2h5.8c.5 0 .91-.4.91-.91v-9.96c0-.5-.4-.92-.91-.92H33.3a.64.64 0 0 1 0-1.29h1.58c1.2 0 2.19.98 2.19 2.2v9.95c0 1.21-.99 2.2-2.2 2.2h-5.8c-.5 0-.91.4-.91.91v5.8c0 1.21-.99 2.2-2.2 2.2Z"/><path fill="url(#f)" d="M19.03 28.1h-.18a3.47 3.47 0 0 1-2.8-1.72.64.64 0 0 1 .24-.88c.3-.17.7-.08.88.24a2.15 2.15 0 0 0 2.9.84c.59-.32 1.31-.32 1.9 0a2.18 2.18 0 1 0 1.8-3.95c-.34-.13-.63-.4-.8-.72a2.15 2.15 0 0 0-1.94-1.21c-.83 0-1.58.46-1.95 1.2-.17.35-.44.6-.8.73-.5.2-.93.57-1.18 1.07a.64.64 0 1 1-1.14-.56 3.44 3.44 0 0 1 1.86-1.7.2.2 0 0 0 .1-.11 3.43 3.43 0 0 1 6.18 0c.02.05.06.08.1.1a3.45 3.45 0 1 1-2.85 6.26.73.73 0 0 0-.7 0c-.49.27-1.05.41-1.62.41Z"/><defs><linearGradient id="a" x1="15.34" x2="17.33" y1="16.78" y2="17.76" gradientUnits="userSpaceOnUse"><stop stop-color="#192644"/><stop offset="1" stop-color="#1A4081"/></linearGradient><linearGradient id="b" x1="26.58" x2="28.57" y1="16.78" y2="17.76" gradientUnits="userSpaceOnUse"><stop stop-color="#192644"/><stop offset="1" stop-color="#1A4081"/></linearGradient><linearGradient id="c" x1="18.76" x2="20.64" y1="13.9" y2="14.73" gradientUnits="userSpaceOnUse"><stop stop-color="#192644"/><stop offset="1" stop-color="#1A4081"/></linearGradient><linearGradient id="d" x1="23.17" x2="25.05" y1="13.9" y2="14.73" gradientUnits="userSpaceOnUse"><stop stop-color="#192644"/><stop offset="1" stop-color="#1A4081"/></linearGradient><linearGradient id="e" x1="20.68" x2="35.5" y1="4.91" y2="14.04" gradientUnits="userSpaceOnUse"><stop stop-color="#192644"/><stop offset="1" stop-color="#1A4081"/></linearGradient><linearGradient id="f" x1="21.05" x2="25.35" y1="19.41" y2="22.62" gradientUnits="userSpaceOnUse"><stop stop-color="#192644"/><stop offset="1" stop-color="#1A4081"/></linearGradient></defs></svg>