<svg xmlns="http://www.w3.org/2000/svg" fill="none" viewBox="0 0 42 42"><path fill="url(#a)" d="M31.82 26.13h-7.9v-1.6c.39-.27.62-.68.64-1.13 1.91-.4 3.7-1.31 5.13-2.65a1.2 1.2 0 0 0 .29-1.42 10.87 10.87 0 0 0 2.6-6.4.64.64 0 0 0-.15-.45.57.57 0 0 0-.4-.2.5.5 0 0 0-.43.11.61.61 0 0 0-.23.46 9.76 9.76 0 0 1-2.22 5.54l-.5-.49a8.94 8.94 0 0 0 2.02-5.59V8.85c0-.8-.64-1.43-1.43-1.43h-.68v-.73h.68c1.18 0 2.16.96 2.16 2.16v1.78a.62.62 0 1 0 1.23 0V8.85c0-1.87-1.51-3.38-3.37-3.38h-.86c-.2-.34-.55-.53-.93-.53h-1.01a2.11 2.11 0 1 0 0 4.22h1.01c.37 0 .7-.2.92-.52h.87c.11 0 .2.09.2.2v3.47c0 1.75-.68 3.55-1.87 4.95-.37-.05-.74.05-.99.29a6.41 6.41 0 0 1-8.52 0 1.2 1.2 0 0 0-.98-.3 7.77 7.77 0 0 1-1.88-4.94V8.85c0-.12.1-.21.21-.21h.87c.21.32.55.52.92.52h1.01a2.11 2.11 0 1 0 0-4.22h-1.01c-.38 0-.73.2-.93.53h-.85a3.37 3.37 0 0 0-3.38 3.38v3.46c0 2.5.96 5.05 2.63 7.01-.08.17-.12.34-.12.51 0 .34.16.68.4.92a10.94 10.94 0 0 0 5.14 2.64c.01.46.25.87.64 1.14v1.6H11.9c-.55 0-1-.44-1-1v-.77a4.53 4.53 0 0 0 2.95-4.23 4.54 4.54 0 0 0-5.69-4.38.58.58 0 0 0-.36.29c-.08.14-.1.3-.07.46a.63.63 0 0 0 .75.43 3.31 3.31 0 1 1-1.64 1.01.62.62 0 0 0-.05-.86.55.55 0 0 0-.45-.15.55.55 0 0 0-.42.21 4.51 4.51 0 0 0 1.81 7.23v.76c0 2.3 1.88 4.18 4.17 4.18h8.85v3.46c0 2.3 1.88 4.18 4.17 4.18h6.9a5.4 5.4 0 1 0 0-10.8v-.02ZM11.9 27.35h8.85v.72H11.9a2.94 2.94 0 0 1-2.94-2.94v-.48H9c.21.03.45.03.66 0h.02v.48c0 1.24 1 2.24 2.23 2.24v-.02Zm19.91 6.4h-6.9c-.55 0-1-.44-1-1V29.3h7.9a2.23 2.23 0 1 1 0 4.46Zm-9.84-8.93h.72v7.94c0 1.23 1 2.23 2.23 2.23h6.9a3.46 3.46 0 0 0 0-6.9h-7.9v-.72h7.9a4.18 4.18 0 0 1 2.96 7.12 4.15 4.15 0 0 1-2.95 1.22h-6.9a2.95 2.95 0 0 1-2.96-2.94v-7.95Zm-4.71-6.37a7.67 7.67 0 0 0 5.12 1.95c1.86 0 3.65-.7 5.04-1.95h.04l1.31 1.25v.05h.05l.05.06-.02.04a9.5 9.5 0 0 1-6.47 2.54h-.04c-2.42 0-4.73-.9-6.52-2.53v-.12l1.37-1.31h.04l.03.02ZM15.42 6.7h.68v.73h-.68c-.79 0-1.43.64-1.43 1.43v3.46c0 2 .72 4 2.02 5.6l-.52.5a9.74 9.74 0 0 1-2.22-6.1V8.85c0-1.18.97-2.16 2.15-2.16Zm11.95 1.2v.02h-.91a.9.9 0 0 1-.9-.89c0-.48.41-.9.9-.9l.9-.02.02 1.78h-.01ZM17.3 6.2v-.03l.01-.02h.9a.9.9 0 0 1 0 1.78l-.89.03-.02-1.75v-.01Z"/><path fill="url(#b)" d="M10.9 20.13c0-.86-.71-1.58-1.58-1.58a1.59 1.59 0 1 0 1.58 1.59Zm-1.23 0a.35.35 0 1 1-.7 0c0-.2.15-.35.35-.35.2 0 .35.16.35.35Z"/><defs><linearGradient id="a" x1="20.68" x2="35.52" y1="4.94" y2="14.2" gradientUnits="userSpaceOnUse"><stop stop-color="#192644"/><stop offset="1" stop-color="#1A4081"/></linearGradient><linearGradient id="b" x1="9.28" x2="10.74" y1="18.55" y2="19.44" gradientUnits="userSpaceOnUse"><stop stop-color="#192644"/><stop offset="1" stop-color="#1A4081"/></linearGradient></defs></svg>