<svg xmlns="http://www.w3.org/2000/svg" fill="none" viewBox="0 0 42 42"><path fill="url(#a)" fill-rule="evenodd" d="M8.08 20.95v-2.02c1.6-1.25 2.6-3.77 2.6-6.6 0-4.14-2.1-7.38-4.79-7.38-2.67 0-4.79 3.24-4.79 7.39 0 2.82 1.01 5.34 2.61 6.59v2L2.64 34.4c-.04.53.16 1.04.58 1.48a4 4 0 0 0 2.69 1.19 4 4 0 0 0 2.67-1.19c.42-.44.62-.97.58-1.48L8.1 20.96l-.02-.01Zm-5.61-8.61c0-3.27 1.57-6.03 3.42-6.03 1.85 0 3.43 2.76 3.43 6.03 0 2.41-.85 4.6-2.14 5.55H4.59c-1.28-.95-2.14-3.15-2.14-5.55h.02Zm5.1 22.61c-.38.4-1.13.74-1.68.74s-1.3-.33-1.68-.74c-.1-.12-.22-.29-.22-.44l1.02-12.85h1.75L7.78 34.5c0 .17-.1.34-.22.44h.01Z" clip-rule="evenodd"/><path fill="url(#b)" fill-rule="evenodd" d="M40.22 27.55h-1.17l.02-.77c0-6.04-4.03-11.15-9.53-12.79v-1.5c0-1.91-1.54-3.46-3.45-3.46h-.73a3.46 3.46 0 0 0-3.45 3.45V14a13.36 13.36 0 0 0-9.5 13.57h-1.19c-.38 0-.68.3-.68.69v2.02c0 1.5 1.22 2.71 2.72 2.71H38.2a2.7 2.7 0 0 0 2.7-2.71v-2.02c0-.39-.3-.69-.68-.69l-.01-.01ZM23.27 12.48c0-1.14.93-2.07 2.07-2.07h.74c1.14 0 2.07.93 2.07 2.07v1.18a13.76 13.76 0 0 0-4.9 0v-1.18h.02Zm-9.53 14.3a12 12 0 0 1 23.97 0c0 .24 0 .5-.03.77H13.77l-.03-.77Zm25.8 3.47c0 .75-.61 1.36-1.35 1.36H13.24c-.73 0-1.34-.6-1.34-1.36v-1.34h27.63v1.34Z" clip-rule="evenodd"/><path fill="url(#c)" fill-rule="evenodd" d="M25.71 16.87a9.9 9.9 0 0 0-9.68 7.8c-.08.36.15.73.52.8l.14.02c.32 0 .6-.22.67-.54a8.59 8.59 0 0 1 8.35-6.72c.38 0 .68-.3.68-.68 0-.38-.3-.68-.68-.68Z" clip-rule="evenodd"/><defs><linearGradient id="a" x1="5.8" x2="11.69" y1="4.95" y2="6.03" gradientUnits="userSpaceOnUse"><stop stop-color="#192644"/><stop offset="1" stop-color="#1A4081"/></linearGradient><linearGradient id="b" x1="25.42" x2="37.42" y1="9.03" y2="18.4" gradientUnits="userSpaceOnUse"><stop stop-color="#192644"/><stop offset="1" stop-color="#1A4081"/></linearGradient><linearGradient id="c" x1="21.1" x2="25.36" y1="16.87" y2="20.02" gradientUnits="userSpaceOnUse"><stop stop-color="#192644"/><stop offset="1" stop-color="#1A4081"/></linearGradient></defs></svg>