<svg xmlns="http://www.w3.org/2000/svg" fill="none" viewBox="0 0 42 42"><path fill="url(#a)" d="M36.67 24.14a.78.78 0 0 0-.55-.27h-.1v-3.9a15.04 15.04 0 0 0-30.11 0v3.9h-.04c-.19 0-.37.08-.55.25-.12.12-.21.4-.12.6l3.02 11.73c0 .35.27.6.67.6h24.2c.4 0 .67-.23.67-.56l3.02-11.76a.6.6 0 0 0-.12-.6h.01Zm-1.34 1.14L32.6 35.7H9.46l-2.82-10.5 28.7.07Zm-2.96-1.4h-8.73a4.8 4.8 0 0 1-.21-1.37c0-2.39 1.36-4.4 3-4.4.44 0 .83.12 1.2.37.09.1.25.18.48.12h.1l.1-.04h.01l.1-.07c.34-.26.7-.38 1.16-.38 1.66 0 3 1.97 3 4.4 0 .4-.07.84-.2 1.36h-.01ZM15.08 13.15l-2.61.77-.12-.38 2.61-.75.1.36h.02ZM12.6 18.1l.34-.07h.04c.36-.2.54-.55.45-.93l-.57-1.85 2.61-.76.57 1.85c0 .24.17.34.3.4.18.1.36.1.43.1l.4-.14c.42-.12.86-.08 1.26.11.33.2.64.6.76.96l.46 1.59-7.7 2.28-.44-1.5a1.66 1.66 0 0 1 1.08-2.04h.01Zm22.01 5.77h-.77c.07-.39.15-.86.15-1.36 0-3.16-1.97-5.74-4.4-5.74-.27 0-.56.04-.86.15.08-.66.32-1.08.4-1.26.02-.04.05-.07.05-.1a.63.63 0 0 0-.03-.91.72.72 0 0 0-1.02 0s-.78.82-.84 2.26a3.02 3.02 0 0 0-.8-.12c-2.42 0-4.39 2.57-4.39 5.73v.2l-1.55-5.3a3.07 3.07 0 0 0-1.43-1.8c-.7-.32-1.38-.4-2-.26l-.48-1.74s0-.11-.04-.17l-.5-1.78-.04-.04-.05-.07a.72.72 0 0 0-.25-.23c-.09-.08-.22-.08-.27-.08-.07 0-.17 0-.27.06l-3.9 1.19c-.3.1-.57.47-.47.85l1.08 3.57a2.97 2.97 0 0 0-1.7 3.6l.62 2.12v.08l.36 1.17H7.32v-3.9a13.65 13.65 0 1 1 27.29 0v3.9-.02ZM20.07 20.7l.93 3.18h-8.36l-.26-.89 7.69-2.3Z"/><path fill="url(#b)" d="M12.68 29.71h16.46c.4 0 .67-.38.67-.73a.66.66 0 0 0-.67-.67H12.68a.66.66 0 0 0-.67.67c0 .35.28.73.67.73Z"/><path fill="url(#c)" d="M29.14 31.9H12.68a.66.66 0 0 0-.67.66c0 .44.28.74.67.74h16.46c.4 0 .67-.3.67-.74a.66.66 0 0 0-.67-.67Z"/><defs><linearGradient id="a" x1="20.67" x2="35.37" y1="4.95" y2="13.88" gradientUnits="userSpaceOnUse"><stop stop-color="#192644"/><stop offset="1" stop-color="#1A4081"/></linearGradient><linearGradient id="b" x1="20.73" x2="20.91" y1="28.31" y2="29.74" gradientUnits="userSpaceOnUse"><stop stop-color="#192644"/><stop offset="1" stop-color="#1A4081"/></linearGradient><linearGradient id="c" x1="20.73" x2="20.91" y1="31.89" y2="33.32" gradientUnits="userSpaceOnUse"><stop stop-color="#192644"/><stop offset="1" stop-color="#1A4081"/></linearGradient></defs></svg>