<svg xmlns="http://www.w3.org/2000/svg" fill="none" viewBox="0 0 42 42"><path fill="url(#a)" d="M20.9 26.38c.38 0 .68-.3.68-.68 0-.38-.3-.68-.68-.68H10.28c-2.37 0-3.46-6.19-3.5-12.38 2.43.85 4.95 1.4 7.51 1.6v4.16a2.25 2.25 0 0 0 2.25 2.25h2.08a2.24 2.24 0 0 0 2.25-2.25v-4.16c2.56-.2 5.08-.75 7.5-1.61 0 .78-.02 1.89-.11 3.12a.7.7 0 0 0 .3.62c.2.13.46.15.68.04.23-.1.37-.33.38-.57.1-1.4.1-2.64.12-3.45 0-.4-.2-.77-.52-1a1.17 1.17 0 0 0-1.12-.12c-1.13.44-2.3.78-3.48 1.03-1.03-4.25-3.86-7.1-7.05-7.1s-6 2.85-7.04 7.1c-1.19-.25-2.35-.6-3.48-1.01A1.2 1.2 0 0 0 5.4 12.4c0 4.2.48 13.98 4.87 13.98H20.9Zm-9.02-13.83a9.09 9.09 0 0 1 2.86-4.91 16.86 16.86 0 0 0-1.33 5.13c-.5-.07-1.03-.13-1.53-.22Zm8.54-4.91a9.04 9.04 0 0 1 2.86 4.9c-.5.09-1 .16-1.53.23-.24-2.02-.7-3.8-1.33-5.13Zm-5.64 5.26c.46-3.98 1.77-6.34 2.8-6.34 1.04 0 2.36 2.38 2.82 6.34a36.3 36.3 0 0 1-5.6 0h-.02Zm.88 1.43c1.27.07 2.57.07 3.84 0v4.06c0 .48-.39.88-.88.88h-2.08a.88.88 0 0 1-.88-.88v-4.06Z"/><path fill="url(#b)" d="M10.55 22.92a4.5 4.5 0 0 1-.59-1.3.69.69 0 0 0-1.18-.27.72.72 0 0 0-.13.69c.6 1.86 1.15 2.1 1.36 2.19.08.04.19.05.27.05h1.55a.68.68 0 0 0 .12-1.35h-1.42l.02-.01Z"/><path fill="url(#c)" d="M17.06 18.03h1.05c.38 0 .69-.3.69-.68 0-.38-.3-.68-.69-.68h-1.05c-.38 0-.68.3-.68.68 0 .38.3.68.68.68Z"/><path fill="url(#d)" d="M34.5 14.99c-.62-.71-1.71-.78-2.42-.17-4.69 4.01-7.96 8.7-10.34 12.11l-.1.13c-.34.49-.65.95-.97 1.38-2.18 3.06-5.17.97-5.3.88-.32-.23-.81-.35-2.27.29a8.37 8.37 0 0 0-2.59 1.79c-.74.74-1.97 2.19-1.72 3.5.15.67.65 1.2 1.29 1.43a8.6 8.6 0 0 0 2.93.51h7.68c2.66 0 3.49-1.44 4.85-3.83.5-.88 1.13-1.98 1.98-3.26.7-1.02 1.53-1.95 2.46-2.78.64 1.37.98 2.89.98 4.4v4.26c0 .67.54 1.21 1.2 1.21h1.57c.67 0 1.2-.54 1.2-1.2V29.8c0-.92.13-1.83.36-2.7l.5-1.86c.58-2.1.7-2.53.7-2.58.38-4.19-1.1-6.6-2.04-7.64l.04-.04Zm-3.42 11.06a21.65 21.65 0 0 1 3.73-2.28L34 26.7c-.28 1-.41 2.03-.41 3.07v5.67h-1.23v-4.1c0-1.82-.45-3.66-1.28-5.28l-.01-.02Zm2.38-10.17c.73.84 1.94 2.77 1.73 6.2-1.48.61-6.04 2.75-8.8 6.87-.9 1.36-1.54 2.51-2.03 3.34-1.34 2.35-1.79 3.13-3.66 3.13h-7.31c-.96.04-1.9-.09-2.79-.4-.41-.17-.45-.37-.47-.44-.08-.38.3-1.23 1.34-2.25a7.2 7.2 0 0 1 2.18-1.51c.31-.17.67-.28 1.02-.34.71.44 1.5.74 2.33.88 1.3.2 3.21 0 4.77-2.17l1.02-1.43.05-.08c2.35-3.36 5.56-7.94 10.1-11.85.15-.12.37-.1.49.04l.03.01Z"/><path fill="url(#e)" d="M14 31.49h-.05a6.57 6.57 0 0 0-2.54 2.03.71.71 0 0 0-.1.68c.1.23.3.4.54.42h.1c.2 0 .4-.09.53-.26.15-.18.3-.37.49-.54.44-.44.96-.81 1.53-1.07a.69.69 0 0 0-.5-1.28v.02Z"/><defs><linearGradient id="a" x1="17.33" x2="27.65" y1="5.2" y2="12.49" gradientUnits="userSpaceOnUse"><stop stop-color="#192644"/><stop offset="1" stop-color="#1A4081"/></linearGradient><linearGradient id="b" x1="10.52" x2="12.1" y1="21.12" y2="22.31" gradientUnits="userSpaceOnUse"><stop stop-color="#192644"/><stop offset="1" stop-color="#1A4081"/></linearGradient><linearGradient id="c" x1="17.56" x2="18.27" y1="16.67" y2="17.43" gradientUnits="userSpaceOnUse"><stop stop-color="#192644"/><stop offset="1" stop-color="#1A4081"/></linearGradient><linearGradient id="d" x1="22.38" x2="33.55" y1="14.41" y2="22.93" gradientUnits="userSpaceOnUse"><stop stop-color="#192644"/><stop offset="1" stop-color="#1A4081"/></linearGradient><linearGradient id="e" x1="13.04" x2="14.58" y1="31.44" y2="32.52" gradientUnits="userSpaceOnUse"><stop stop-color="#192644"/><stop offset="1" stop-color="#1A4081"/></linearGradient></defs></svg>